# xmcd
#
# Track frame offsets:
#	150
#	16902
#	33464
#	51736
#	67240
#	84017
#	101178
#	113806
#	127288
#	143987
#	156356
#	172177
#	183637
#	198909
#	213108
#	226649
#	238548
#	253995
#	267447
#	284641
#
# Disc length: 4028 seconds
#
# Revision: 0
# Processed by: cddbd v1.5.2PL0 Copyright (c) Steve Scherf et al.
# Submitted via: EasyCDDAExtractor 16.0.8.1
#
DISCID=370fba14
DTITLE=Dino Franco e Mourai - Dino Franco e Mourai – 2016 - Os Maiores Sucesso
DTITLE=s
DYEAR=2016
DGENRE=Sertanejo
TTITLE0=Devolva A Passagem
TTITLE1=Somente Agora Eu Vejo
TTITLE2=Manto Estrelado
TTITLE3=Serra Molhada
TTITLE4=Sertaneja
TTITLE5=Meus Tempos De Criança
TTITLE6=Sopro De Brisa
TTITLE7=Pedaço De Chão
TTITLE8=Casa Pobre
TTITLE9=Caboclo Centenário
TTITLE10=Por Do Sol
TTITLE11=Candidato Caipira
TTITLE12=Amanhecer Divino
TTITLE13=Cheiro De Relva
TTITLE14=Presente De Deus
TTITLE15=Lavoura De Maconha
TTITLE16=Caboclo Da Cidade
TTITLE17=A Cachaça E O Fumo
TTITLE18=Nelore Valente
TTITLE19=Travessia Do Araguaia
EXTD=
EXTT0=
EXTT1=
EXTT2=
EXTT3=
EXTT4=
EXTT5=
EXTT6=
EXTT7=
EXTT8=
EXTT9=
EXTT10=
EXTT11=
EXTT12=
EXTT13=
EXTT14=
EXTT15=
EXTT16=
EXTT17=
EXTT18=
EXTT19=
PLAYORDER=
